<svg id="Capa_1" data-name="Capa 1" xmlns="http://www.w3.org/2000/svg" viewBox="0 0 498.21 56.81"><defs><style>.cls-1{fill:#fff;}</style></defs><title>Logo</title><path class="cls-1" d="M12.6,49.47h5.2V56H0V49.47H5.26V20.86H0V14.38H17.79v6.48H12.6Z"/><path class="cls-1" d="M83.89,20.86V56H78.14L54.48,28V49.47h5.2V56H41.88V49.47h5.26V20.86H41.88V14.38H52.16l24.4,29.1V20.86H71.29V14.38H89.09v6.48Z"/><path class="cls-1" d="M158.61,49.47h5.26V56H146V49.47h5.2V30.64L139.53,49.29h-4.46L123.21,30.39l.06,19.08h5.26V56H110.67V49.47h5.26V20.86H110.8V14.38h9.84l16.63,25.74L153.9,14.38h10v6.48h-5.26Z"/><path class="cls-1" d="M229.42,35.16a21.64,21.64,0,1,1-21.64-21.64A21.61,21.61,0,0,1,229.42,35.16Zm-7.4,0c0-8.13-6.11-14.8-14.18-14.8S193.59,27,193.59,35.16,199.7,50,207.83,50,222,43.3,222,35.16Z"/><path class="cls-1" d="M287.14,28.32h-6.6V21.16H264.27v12H279.8v6.79H264.27v9.54h6.79V56H251.67V49.47h5.26V20.86h-5.26V14.38h35.46Z"/><path class="cls-1" d="M344.74,56H310.13V49.47h5.26V20.86h-5.26V14.38h20.36v6.48h-7.77V49.35h14.92V42h7.09Z"/><path class="cls-1" d="M411.81,35.16a21.64,21.64,0,1,1-21.64-21.64A21.61,21.61,0,0,1,411.81,35.16Zm-7.4,0c0-8.13-6.11-14.8-14.18-14.8S376,27,376,35.16,382.1,50,390.23,50,404.41,43.3,404.41,35.16Z"/><path class="cls-1" d="M481.95,56.07v.12h-7.28v-.06l-9.84-28.55L454.92,56.2h-7.21L436,20.86h-4.59V14.38h19.38v6.48h-7.09l7.64,24.33,10.46-30.82h5.93l10.46,30.69,7.7-24.21h-7.09V14.38h19.38v6.48h-4.65Z"/><path class="cls-1" d="M0,6.48V0H17.81V6.48Z"/></svg>